<svg width="120" height="120" viewBox="0 0 120 120" fill="none" xmlns="http://www.w3.org/2000/svg">
<g id='logo'>
<path d="M48 23.79C48 29.2269 46.1148 34.4955 42.6657 38.6983C39.2166 42.901 34.417 45.7778 29.0846 46.8385C23.7522 47.8992 18.2171 47.0781 13.4222 44.5152C8.62731 41.9523 4.86942 37.8061 2.78883 32.7831C0.708239 27.7601 0.433668 22.1711 2.0119 16.9684C3.59013 11.7656 6.92352 7.27106 11.4441 4.2505C15.9647 1.22995 21.3927 -0.129706 26.8034 0.403198C32.2141 0.936101 37.2726 3.3286 41.117 7.17303L38.5485 9.74152C35.2983 6.49133 31.0217 4.46864 26.4474 4.01811C21.873 3.56757 17.284 4.71707 13.4622 7.27073C9.64032 9.8244 6.82218 13.6242 5.48789 18.0228C4.15361 22.4213 4.38574 27.1465 6.14473 31.393C7.90373 35.6396 11.0808 39.1449 15.1345 41.3117C19.1882 43.4785 23.8678 44.1726 28.376 43.2759C32.8841 42.3792 36.9419 39.947 39.8579 36.3939C42.7738 32.8408 44.3676 28.3865 44.3676 23.79H48Z" fill="white"/>
<path d="M16.0159 39.0958C12.4748 37.1329 9.72382 34.003 8.23174 30.2392C6.73967 26.4755 6.59878 22.3108 7.83309 18.4548C9.0674 14.5988 11.6005 11.2901 15.0009 9.09244C18.4012 6.89477 22.4584 5.9441 26.4811 6.40243C30.5038 6.86076 34.2431 8.69972 37.0619 11.606C39.8807 14.5122 41.6047 18.306 41.9399 22.3408C42.2752 26.3756 41.2011 30.4018 38.9006 33.7335C36.6001 37.0651 33.2156 39.496 29.3237 40.612L28.5781 38.0118C31.8684 37.0683 34.7298 35.0132 36.6747 32.1965C38.6196 29.3798 39.5277 25.9759 39.2442 22.5648C38.9608 19.1536 37.5033 15.9463 35.1202 13.4893C32.7371 11.0322 29.5758 9.4775 26.1749 9.09002C22.774 8.70254 19.3439 9.50626 16.4692 11.3642C13.5944 13.2222 11.4528 16.0195 10.4093 19.2795C9.36578 22.5394 9.48489 26.0604 10.7463 29.2424C12.0078 32.4243 14.3335 35.0705 17.3273 36.73L16.0159 39.0958Z" fill="white"/>
<path d="M24.5 11.29C27.3919 11.29 30.1944 12.2928 32.4299 14.1274C34.6654 15.962 36.1956 18.515 36.7598 21.3514C37.324 24.1878 36.8873 27.132 35.524 29.6825C34.1608 32.233 31.9554 34.2318 29.2835 35.3385C26.6117 36.4452 23.6389 36.5913 20.8714 35.7518C18.104 34.9123 15.7133 33.1392 14.1066 30.7347C12.5 28.3301 11.7767 25.4428 12.0602 22.5648C12.3437 19.6868 13.6163 16.9961 15.6612 14.9512L17.0274 16.3174C15.2986 18.0463 14.2227 20.321 13.983 22.7542C13.7434 25.1874 14.3548 27.6283 15.7131 29.6612C17.0715 31.6941 19.0927 33.1931 21.4323 33.9029C23.772 34.6126 26.2853 34.4891 28.5442 33.5535C30.803 32.6178 32.6675 30.9279 33.82 28.7717C34.9726 26.6155 35.3418 24.1263 34.8648 21.7283C34.3878 19.3304 33.0941 17.172 31.2042 15.621C29.3142 14.0699 26.9449 13.2222 24.5 13.2222L24.5 11.29Z" fill="white"/>
<path d="M17.0301 19.7343C17.9685 18.0061 19.477 16.6567 21.2987 15.916C23.1205 15.1754 25.1426 15.0893 27.0207 15.6725C28.8988 16.2556 30.5165 17.4719 31.5983 19.1141C32.6802 20.7563 33.1591 22.7229 32.9535 24.6786C32.748 26.6344 31.8706 28.4583 30.471 29.8397C29.0714 31.2211 27.2361 32.0745 25.2779 32.2545C23.3196 32.4344 21.3595 31.9298 19.7316 30.8266C18.1037 29.7233 16.9086 28.0898 16.3501 26.2043L17.7273 25.7963C18.1915 27.3632 19.1846 28.7207 20.5374 29.6375C21.8902 30.5543 23.5191 30.9737 25.1464 30.8241C26.7738 30.6746 28.2989 29.9654 29.462 28.8175C30.6251 27.6695 31.3542 26.1537 31.525 24.5285C31.6959 22.9032 31.2979 21.269 30.3989 19.9043C29.4999 18.5396 28.1555 17.5288 26.5948 17.0442C25.034 16.5596 23.3536 16.6311 21.8397 17.2466C20.3258 17.8621 19.0722 18.9835 18.2924 20.4196L17.0301 19.7343Z" fill="white"/>
<path d="M28.2197 26.3227C27.6337 27.1833 26.7675 27.8141 25.7687 28.1076C24.7698 28.4011 23.7001 28.3392 22.7417 27.9324C21.7834 27.5256 20.9958 26.7991 20.513 25.8767C20.0303 24.9543 19.8823 23.893 20.0943 22.8737C20.3063 21.8544 20.8652 20.9402 21.6757 20.2868C22.4862 19.6334 23.4982 19.2812 24.5393 19.2903C25.5803 19.2994 26.586 19.6692 27.385 20.3366C28.184 21.0041 28.7269 21.9279 28.921 22.9508L28.0934 23.1079C27.9356 22.2765 27.4944 21.5256 26.845 20.9831C26.1955 20.4406 25.3781 20.14 24.5319 20.1326C23.6858 20.1253 22.8632 20.4115 22.2044 20.9426C21.5456 21.4737 21.0914 22.2168 20.9191 23.0453C20.7467 23.8737 20.867 24.7363 21.2594 25.4861C21.6517 26.2358 22.2919 26.8263 23.0709 27.157C23.8498 27.4876 24.7193 27.5379 25.5312 27.2994C26.3431 27.0608 27.0471 26.5481 27.5234 25.8486L28.2197 26.3227Z" fill="white"/>
<path d="M23.7068 21.4192C24.2553 21.2357 24.8504 21.248 25.3909 21.4541C25.9313 21.6602 26.3835 22.0473 26.6705 22.5495C26.9575 23.0516 27.0615 23.6378 26.9648 24.208C26.8681 24.7783 26.5767 25.2973 26.1402 25.6768C25.7037 26.0563 25.1491 26.2726 24.5709 26.289C23.9928 26.3054 23.4268 26.1209 22.9695 25.7668C22.5122 25.4127 22.1918 24.9109 22.0629 24.3471C21.934 23.7832 22.0046 23.1922 22.2627 22.6745L23.1394 23.1117C22.9825 23.4264 22.9395 23.7859 23.0179 24.1288C23.0963 24.4717 23.2911 24.7768 23.5693 24.9921C23.8474 25.2075 24.1916 25.3197 24.5431 25.3098C24.8947 25.2998 25.232 25.1682 25.4975 24.9374C25.7629 24.7067 25.9402 24.391 25.999 24.0442C26.0578 23.6974 25.9945 23.341 25.82 23.0356C25.6454 22.7302 25.3704 22.4948 25.0418 22.3695C24.7131 22.2442 24.3512 22.2367 24.0176 22.3483L23.7068 21.4192Z" fill="white"/>
<circle cx="24.5" cy="23.79" r="0.5" transform="rotate(-180 24.5 23.79)" fill="white"/>
<path d="M77.83 19.65C77.83 20.71 77.58 21.71 77.08 22.65C76.58 23.59 75.78 24.36 74.68 24.96C73.58 25.54 72.17 25.83 70.45 25.83H66.67V34.29H63.25V13.44H70.45C72.05 13.44 73.4 13.72 74.5 14.28C75.62 14.82 76.45 15.56 76.99 16.5C77.55 17.44 77.83 18.49 77.83 19.65ZM70.45 23.04C71.75 23.04 72.72 22.75 73.36 22.17C74 21.57 74.32 20.73 74.32 19.65C74.32 17.37 73.03 16.23 70.45 16.23H66.67V23.04H70.45ZM88.2618 34.56C86.7018 34.56 85.2918 34.21 84.0318 33.51C82.7718 32.79 81.7818 31.79 81.0618 30.51C80.3418 29.21 79.9818 27.71 79.9818 26.01C79.9818 24.33 80.3518 22.84 81.0918 21.54C81.8318 20.24 82.8418 19.24 84.1218 18.54C85.4018 17.84 86.8318 17.49 88.4118 17.49C89.9918 17.49 91.4218 17.84 92.7018 18.54C93.9818 19.24 94.9918 20.24 95.7318 21.54C96.4718 22.84 96.8418 24.33 96.8418 26.01C96.8418 27.69 96.4618 29.18 95.7018 30.48C94.9418 31.78 93.9018 32.79 92.5818 33.51C91.2818 34.21 89.8418 34.56 88.2618 34.56ZM88.2618 31.59C89.1418 31.59 89.9618 31.38 90.7218 30.96C91.5018 30.54 92.1318 29.91 92.6118 29.07C93.0918 28.23 93.3318 27.21 93.3318 26.01C93.3318 24.81 93.1018 23.8 92.6418 22.98C92.1818 22.14 91.5718 21.51 90.8118 21.09C90.0518 20.67 89.2318 20.46 88.3518 20.46C87.4718 20.46 86.6518 20.67 85.8918 21.09C85.1518 21.51 84.5618 22.14 84.1218 22.98C83.6818 23.8 83.4618 24.81 83.4618 26.01C83.4618 27.79 83.9118 29.17 84.8118 30.15C85.7318 31.11 86.8818 31.59 88.2618 31.59ZM103.643 20.16C104.143 19.32 104.803 18.67 105.623 18.21C106.463 17.73 107.453 17.49 108.593 17.49V21.03H107.723C106.383 21.03 105.363 21.37 104.663 22.05C103.983 22.73 103.643 23.91 103.643 25.59V34.29H100.223V17.76H103.643V20.16ZM115.726 20.55V29.7C115.726 30.32 115.866 30.77 116.146 31.05C116.446 31.31 116.946 31.44 117.646 31.44H119.746V34.29H117.046C115.506 34.29 114.326 33.93 113.506 33.21C112.686 32.49 112.276 31.32 112.276 29.7V20.55H110.326V17.76H112.276V13.65H115.726V17.76H119.746V20.55H115.726ZM129.828 20.55H126.768V34.29H123.318V20.55H121.368V17.76H123.318V16.59C123.318 14.69 123.818 13.31 124.818 12.45C125.838 11.57 127.428 11.13 129.588 11.13V13.98C128.548 13.98 127.818 14.18 127.398 14.58C126.978 14.96 126.768 15.63 126.768 16.59V17.76H129.828V20.55ZM140.029 34.56C138.469 34.56 137.059 34.21 135.799 33.51C134.539 32.79 133.549 31.79 132.829 30.51C132.109 29.21 131.749 27.71 131.749 26.01C131.749 24.33 132.119 22.84 132.859 21.54C133.599 20.24 134.609 19.24 135.889 18.54C137.169 17.84 138.599 17.49 140.179 17.49C141.759 17.49 143.189 17.84 144.469 18.54C145.749 19.24 146.759 20.24 147.499 21.54C148.239 22.84 148.609 24.33 148.609 26.01C148.609 27.69 148.229 29.18 147.469 30.48C146.709 31.78 145.669 32.79 144.349 33.51C143.049 34.21 141.609 34.56 140.029 34.56ZM140.029 31.59C140.909 31.59 141.729 31.38 142.489 30.96C143.269 30.54 143.899 29.91 144.379 29.07C144.859 28.23 145.099 27.21 145.099 26.01C145.099 24.81 144.869 23.8 144.409 22.98C143.949 22.14 143.339 21.51 142.579 21.09C141.819 20.67 140.999 20.46 140.119 20.46C139.239 20.46 138.419 20.67 137.659 21.09C136.919 21.51 136.329 22.14 135.889 22.98C135.449 23.8 135.229 24.81 135.229 26.01C135.229 27.79 135.679 29.17 136.579 30.15C137.499 31.11 138.649 31.59 140.029 31.59ZM155.41 12.09V34.29H151.99V12.09H155.41ZM161.64 15.57C161.02 15.57 160.5 15.36 160.08 14.94C159.66 14.52 159.45 14 159.45 13.38C159.45 12.76 159.66 12.24 160.08 11.82C160.5 11.4 161.02 11.19 161.64 11.19C162.24 11.19 162.75 11.4 163.17 11.82C163.59 12.24 163.8 12.76 163.8 13.38C163.8 14 163.59 14.52 163.17 14.94C162.75 15.36 162.24 15.57 161.64 15.57ZM163.32 17.76V34.29H159.9V17.76H163.32ZM174.981 34.56C173.421 34.56 172.011 34.21 170.751 33.51C169.491 32.79 168.501 31.79 167.781 30.51C167.061 29.21 166.701 27.71 166.701 26.01C166.701 24.33 167.071 22.84 167.811 21.54C168.551 20.24 169.561 19.24 170.841 18.54C172.121 17.84 173.551 17.49 175.131 17.49C176.711 17.49 178.141 17.84 179.421 18.54C180.701 19.24 181.711 20.24 182.451 21.54C183.191 22.84 183.561 24.33 183.561 26.01C183.561 27.69 183.181 29.18 182.421 30.48C181.661 31.78 180.621 32.79 179.301 33.51C178.001 34.21 176.561 34.56 174.981 34.56ZM174.981 31.59C175.861 31.59 176.681 31.38 177.441 30.96C178.221 30.54 178.851 29.91 179.331 29.07C179.811 28.23 180.051 27.21 180.051 26.01C180.051 24.81 179.821 23.8 179.361 22.98C178.901 22.14 178.291 21.51 177.531 21.09C176.771 20.67 175.951 20.46 175.071 20.46C174.191 20.46 173.371 20.67 172.611 21.09C171.871 21.51 171.281 22.14 170.841 22.98C170.401 23.8 170.181 24.81 170.181 26.01C170.181 27.79 170.631 29.17 171.531 30.15C172.451 31.11 173.601 31.59 174.981 31.59Z" fill="white"/>
</g>

<g id="html">
<g clip-path="url(#clip0_72112_31)">
<path d="M153.125 0H46.875C20.9867 0 0 20.9867 0 46.875V153.125C0 179.013 20.9867 200 46.875 200H153.125C179.013 200 200 179.013 200 153.125V46.875C200 20.9867 179.013 0 153.125 0Z" fill="#E14E1D"/>
<path d="M37.5 29.6875L44.2266 105.151H130.719L127.816 137.518L99.968 145.048L72.1719 137.529L70.3133 116.746H45.2656L48.8477 156.809L99.9625 171.006L151.142 156.809L158.004 80.1992H67.05L64.7664 54.6445H160.265L162.5 29.6875H37.5Z" fill="white"/>
<path d="M100 29.6875H37.5L44.2266 105.151H100V80.1992H67.05L64.7664 54.6445H100V29.6875ZM100 145.037L99.968 145.048L72.1719 137.529L70.3133 116.746H45.2656L48.8477 156.809L99.9625 171.006L100.001 170.995L100 145.037Z" fill="#EBEBEB"/>
</g>
</g>

<g id='css'>
<g clip-path="url(#clip0_72112_26)">
<path d="M153.125 0H46.875C20.9867 0 0 20.9867 0 46.875V153.125C0 179.013 20.9867 200 46.875 200H153.125C179.013 200 200 179.013 200 153.125V46.875C200 20.9867 179.013 0 153.125 0Z" fill="#0277BD"/>
<path d="M41.9945 80.1961L44.2305 105.151H100.075V80.1961H41.9945ZM100.074 29.6875H37.5L39.7687 54.6422H100.074V29.6875ZM100.074 170.97V145.006L99.9648 145.035L72.1727 137.531L70.3961 117.628H45.3453L48.8414 156.811L99.9594 171.002L100.074 170.97Z" fill="#EBEBEB"/>
<path d="M130.717 105.151L127.82 137.515L99.9883 145.027V170.989L151.147 156.811L151.522 152.595L157.386 86.8977L157.995 80.1961L162.5 29.6875H99.9883V54.6422H135.152L132.881 80.1961H99.9883V105.151H130.717Z" fill="white"/>
</g>
</g>

<g id='js'>
<g clip-path="url(#clip0_72112_45)">
<path d="M153.125 0H46.875C20.9867 0 0 20.9867 0 46.875V153.125C0 179.013 20.9867 200 46.875 200H153.125C179.013 200 200 179.013 200 153.125V46.875C200 20.9867 179.013 0 153.125 0Z" fill="#F0DB4F"/>
<path d="M52.5875 167.134L67.8922 157.872C70.8453 163.107 73.5313 167.537 79.9742 167.537C86.15 167.537 90.0438 165.121 90.0438 155.724V91.8195H108.839V155.99C108.839 175.456 97.4281 184.317 80.7797 184.317C65.7445 184.317 57.0172 176.53 52.5867 167.133M119.048 165.12L134.351 156.26C138.38 162.839 143.616 167.672 152.878 167.672C160.666 167.672 165.632 163.778 165.632 158.408C165.632 151.964 160.53 149.681 151.938 145.923L147.241 143.909C133.68 138.137 124.685 130.887 124.685 115.582C124.685 101.485 135.426 90.7445 152.208 90.7445C164.156 90.7445 172.748 94.907 178.923 105.781L164.29 115.179C161.067 109.406 157.578 107.124 152.208 107.124C146.703 107.124 143.213 110.615 143.213 115.179C143.213 120.817 146.703 123.1 154.758 126.591L159.456 128.605C175.432 135.452 184.427 142.432 184.427 158.139C184.427 175.056 171.137 184.319 153.281 184.319C135.829 184.319 124.552 175.995 119.048 165.12Z" fill="#323330"/>
</g>
</g>

<g id='react'>
<g clip-path="url(#clip0_72112_36)">
<path d="M153.125 0H46.875C20.9867 0 0 20.9867 0 46.875V153.125C0 179.013 20.9867 200 46.875 200H153.125C179.013 200 200 179.013 200 153.125V46.875C200 20.9867 179.013 0 153.125 0Z" fill="#242938"/>
<path d="M100.001 114.805C108.051 114.805 114.576 108.28 114.576 100.23C114.576 92.1812 108.051 85.6555 100.001 85.6555C91.9508 85.6555 85.4258 92.1812 85.4258 100.23C85.4258 108.28 91.9516 114.805 100.001 114.805Z" fill="#00D8FF"/>
<path d="M100.002 70.5961C119.57 70.5961 137.749 73.4039 151.456 78.1234C167.971 83.8086 178.125 92.4266 178.125 100.23C178.125 108.363 167.364 117.518 149.629 123.394C136.221 127.836 118.577 130.155 100.002 130.155C80.9562 130.155 62.9211 127.978 49.3617 123.345C32.207 117.481 21.875 108.208 21.875 100.23C21.875 92.4898 31.5703 83.9383 47.8531 78.2617C61.6109 73.4649 80.2383 70.5961 99.9984 70.5961H100.002Z" stroke="#00D8FF" stroke-width="1.11388"/>
<path d="M74.2039 85.4984C83.9805 68.5469 95.4938 54.2016 106.43 44.6859C119.605 33.2195 132.144 28.7289 138.903 32.6266C145.948 36.6891 148.503 50.5859 144.734 68.8844C141.886 82.718 135.078 99.1601 125.798 115.252C116.283 131.751 105.388 146.287 94.6016 155.715C80.9524 167.646 67.7563 171.964 60.8461 167.979C54.1406 164.115 51.5766 151.442 54.7938 134.501C57.5117 120.186 64.3328 102.616 74.2008 85.4984H74.2039Z" stroke="#00D8FF" stroke-width="1.11388"/>
<path d="M74.2281 115.295C64.4242 98.3625 57.7492 81.2203 54.9633 66.9937C51.6094 49.8523 53.9805 36.7469 60.7344 32.8375C67.7726 28.7625 81.0875 33.4891 95.0578 45.8937C105.62 55.2719 116.466 69.3789 125.773 85.4555C135.316 101.938 142.467 118.637 145.249 132.691C148.77 150.475 145.92 164.063 139.016 168.059C132.318 171.937 120.059 167.832 106.988 156.584C95.9445 147.08 84.1289 132.397 74.2281 115.295Z" stroke="#00D8FF" stroke-width="1.11388"/>
</g>
</g>

<g id='redux'>
<g clip-path="url(#clip0_72112_57)">
<path d="M153.125 0H46.875C20.9867 0 0 20.9867 0 46.875V153.125C0 179.013 20.9867 200 46.875 200H153.125C179.013 200 200 179.013 200 153.125V46.875C200 20.9867 179.013 0 153.125 0Z" fill="#764ABC"/>
<path d="M130.14 129.374C135.906 128.777 140.28 123.806 140.081 117.841C139.883 111.877 134.912 107.105 128.947 107.105H128.549C122.385 107.303 117.613 112.473 117.812 118.637C118.011 121.62 119.204 124.204 120.993 125.994C114.233 139.316 103.894 149.059 88.3844 157.211C77.8461 162.778 66.9102 164.766 55.9742 163.375C47.0266 162.182 40.068 158.205 35.693 151.644C29.3305 141.901 28.7344 131.362 34.1023 120.824C37.8805 113.268 43.8453 107.701 47.6234 104.917C46.8281 102.333 45.6352 97.9578 45.0383 94.7766C16.2078 115.655 19.1898 143.889 27.9383 157.211C34.5008 167.152 47.8219 173.316 62.5359 173.316C66.5125 173.316 70.4891 172.919 74.4656 171.924C99.9172 166.954 119.204 151.842 130.14 129.374Z" fill="white"/>
<path d="M165.134 104.719C150.023 87.0219 127.754 77.2797 102.303 77.2797H99.1219C97.332 73.7 93.5539 71.3141 89.3789 71.3141H88.9813C82.8172 71.5133 78.0453 76.6828 78.2438 82.8469C78.443 88.8117 83.4133 93.5836 89.3789 93.5836H89.7766C94.1508 93.3852 97.9289 90.6016 99.5195 86.8234H103.098C118.209 86.8234 132.526 91.1977 145.45 99.7477C155.391 106.309 162.55 114.859 166.527 125.198C169.907 133.549 169.708 141.702 166.129 148.661C160.562 159.199 151.216 164.966 138.888 164.966C130.935 164.966 123.38 162.58 119.402 160.79C117.216 162.778 113.239 165.959 110.455 167.948C119.005 171.924 127.754 174.112 136.105 174.112C155.193 174.112 169.31 163.573 174.679 153.035C180.445 141.503 180.048 121.62 165.134 104.719Z" fill="white"/>
<path d="M64.1265 132.755C64.3258 138.72 69.2961 143.491 75.2617 143.491H75.6593C81.8226 143.292 86.5953 138.123 86.3961 131.959C86.1976 125.994 81.2265 121.222 75.2617 121.222H74.8633C74.4664 121.222 73.8695 121.222 73.4726 121.421C65.3195 107.9 61.9398 93.1859 63.1328 77.2797C63.9281 65.35 67.9047 55.0102 74.864 46.4594C80.6297 39.1031 91.7648 35.5242 99.3203 35.325C120.397 34.9273 129.345 61.1734 129.941 71.7125C132.526 72.3086 136.9 73.7 139.883 74.6945C137.497 42.4844 117.613 25.7812 98.525 25.7812C80.6297 25.7812 64.1265 38.7055 57.5648 57.7938C48.4187 83.2445 54.3836 107.701 65.5179 126.988C64.5242 128.38 63.9273 130.567 64.1265 132.755Z" fill="white"/>
</g>
</g>

<g id='typeScript'>
<g clip-path="url(#clip0_72112_49)">
<path d="M153.125 0H46.875C20.9867 0 0 20.9867 0 46.875V153.125C0 179.013 20.9867 200 46.875 200H153.125C179.013 200 200 179.013 200 153.125V46.875C200 20.9867 179.013 0 153.125 0Z" fill="#007ACC"/>
<path d="M44.2273 100.663L44.1641 108.854H70.1953V182.822H88.6086V108.854H114.64V100.822C114.64 96.3773 114.545 92.6632 114.418 92.5679C114.323 92.4414 98.4812 92.3773 79.275 92.4093L44.3227 92.5047L44.2273 100.663ZM161.38 92.2718C166.459 93.5422 170.333 95.7961 173.888 99.4781C175.73 101.447 178.459 105.034 178.682 105.891C178.745 106.145 170.047 111.987 164.777 115.256C164.587 115.384 163.824 114.558 162.967 113.288C160.396 109.542 157.698 107.923 153.57 107.637C147.507 107.224 143.602 110.399 143.634 115.701C143.634 117.256 143.856 118.177 144.491 119.447C145.824 122.209 148.301 123.859 156.079 127.224C170.396 133.384 176.523 137.447 180.333 143.224C184.587 149.669 185.539 159.955 182.65 167.605C179.476 175.923 171.602 181.573 160.523 183.447C157.095 184.05 148.967 183.955 145.285 183.288C137.253 181.859 129.634 177.891 124.936 172.685C123.095 170.653 119.507 165.352 119.73 164.97C119.824 164.844 120.65 164.336 121.57 163.796C122.459 163.288 125.825 161.352 128.999 159.51L134.745 156.177L135.952 157.955C137.634 160.526 141.316 164.05 143.539 165.224C149.92 168.59 158.682 168.113 162.999 164.241C164.841 162.558 165.602 160.812 165.602 158.241C165.602 155.923 165.316 154.907 164.11 153.161C162.555 150.939 159.38 149.066 150.364 145.161C140.047 140.716 135.602 137.955 131.539 133.573C129.19 131.034 126.967 126.97 126.047 123.573C125.285 120.748 125.095 113.669 125.698 110.812C127.824 100.844 135.348 93.8914 146.205 91.8273C149.73 91.1609 157.92 91.4148 161.38 92.2718Z" fill="white"/>
</g>
</g>

<g id='whatsapp'>
<g clip-path="url(#clip0_72118_11)">
<path d="M0.858467 19.9099C0.85753 23.2961 1.74231 26.6025 3.42469 29.5167L0.697571 39.4739L10.8875 36.8021C13.7059 38.3363 16.8637 39.1403 20.0727 39.1405H20.0811C30.6745 39.1405 39.2978 30.5204 39.3023 19.9251C39.3043 14.7909 37.3067 9.9631 33.6773 6.33089C30.0486 2.699 25.2224 0.697793 20.0803 0.69545C9.48565 0.69545 0.862998 9.31514 0.858624 19.9099" fill="#25D366"/>
<path d="M0.172211 19.9037C0.171118 23.4117 1.0876 26.8363 2.82997 29.8549L0.00506592 40.169L10.5604 37.4014C13.4687 38.9871 16.7432 39.8232 20.0751 39.8244H20.0837C31.0572 39.8244 39.9902 30.8942 39.9949 19.9196C39.9968 14.601 37.9273 9.59959 34.1683 5.83727C30.4088 2.07541 25.41 0.00218694 20.0837 0C9.10838 0 0.176585 8.92898 0.172211 19.9037ZM6.45827 29.3351L6.06415 28.7094C4.40739 26.0751 3.53292 23.0309 3.53417 19.9049C3.53761 10.783 10.9613 3.36165 20.09 3.36165C24.5107 3.36352 28.6653 5.08683 31.7901 8.21354C34.9148 11.3406 36.6342 15.4973 36.6331 19.9184C36.629 29.0403 29.2052 36.4626 20.0837 36.4626H20.0772C17.1071 36.4611 14.1943 35.6634 11.654 34.1562L11.0494 33.7977L4.78573 35.4399L6.45827 29.3351Z" fill="#25D366"/>
<path d="M15.1072 11.5827C14.7345 10.7543 14.3422 10.7376 13.9878 10.7231C13.6975 10.7106 13.3658 10.7115 13.0343 10.7115C12.7025 10.7115 12.1634 10.8363 11.7077 11.3338C11.2516 11.8318 9.96631 13.0353 9.96631 15.4829C9.96631 17.9306 11.7491 20.2963 11.9977 20.6285C12.2465 20.9601 15.4394 26.1438 20.4963 28.138C24.699 29.7952 25.5542 29.4656 26.4663 29.3825C27.3786 29.2997 29.41 28.1794 29.8244 27.0177C30.2391 25.8561 30.2391 24.8604 30.1148 24.6523C29.9904 24.445 29.6587 24.3205 29.1611 24.0719C28.6636 23.8232 26.2175 22.6194 25.7615 22.4534C25.3054 22.2875 24.9737 22.2047 24.642 22.7028C24.3102 23.2002 23.3574 24.3205 23.067 24.6523C22.777 24.9849 22.4866 25.0263 21.9892 24.7775C21.4913 24.5278 19.8891 24.0031 17.9882 22.3084C16.5092 20.9897 15.5107 19.3612 15.2204 18.863C14.9302 18.3657 15.1894 18.096 15.4388 17.8481C15.6624 17.6252 15.9365 17.2672 16.1855 16.9768C16.4336 16.6862 16.5164 16.4789 16.6823 16.1472C16.8483 15.815 16.7652 15.5245 16.641 15.2757C16.5164 15.0268 15.5496 12.5663 15.1072 11.5827Z" fill="white"/>
</g>
</g>

<g id='github'>
<g clip-path="url(#clip0_72120_17)">
<path fill-rule="evenodd" clip-rule="evenodd" d="M20 3.33333C10.7952 3.33333 3.33333 10.7952 3.33333 20C3.33333 29.2047 10.7952 36.6667 20 36.6667C29.2047 36.6667 36.6667 29.2047 36.6667 20C36.6667 10.7952 29.2047 3.33333 20 3.33333ZM0 20C0 8.95433 8.95433 0 20 0C31.0457 0 40 8.95433 40 20C40 31.0457 31.0457 40 20 40C8.95433 40 0 31.0457 0 20Z" fill="#e0e0e0"/>
<path fill-rule="evenodd" clip-rule="evenodd" d="M15.9861 37.893C15.8248 37.6849 15.8248 35.8311 15.9861 32.3317C14.2595 32.3913 13.1687 32.2715 12.7136 31.9723C12.0308 31.5233 11.3474 30.1389 10.7409 29.1633C10.1345 28.1876 8.78858 28.0333 8.24504 27.8153C7.70151 27.5971 7.56507 26.708 9.74275 27.3804C11.9203 28.0528 12.0266 29.8839 12.7136 30.3121C13.4005 30.7403 15.0429 30.5529 15.7873 30.2099C16.5318 29.8669 16.477 28.5898 16.6097 28.0839C16.7776 27.6117 16.1861 27.5069 16.1731 27.5031C15.4462 27.5031 11.6282 26.6728 10.5796 22.9755C9.53083 19.2783 10.8817 16.8618 11.6024 15.8229C12.0829 15.1303 12.0404 13.6543 11.4749 11.3948C13.5279 11.1324 15.1122 11.7786 16.2278 13.3334C16.2289 13.3423 17.6904 12.4643 20.0002 12.4643C22.31 12.4643 23.1294 13.1795 23.7618 13.3334C24.3943 13.4873 24.9 10.6118 28.8057 11.3948C27.9903 12.9974 27.3074 15.0001 27.8286 15.8229C28.3498 16.6458 30.3954 19.2623 29.1388 22.9755C28.3012 25.4511 26.6544 26.9603 24.1987 27.5031C23.9171 27.5929 23.7763 27.7379 23.7763 27.9379C23.7763 28.238 24.157 28.2707 24.7054 29.6764C25.0711 30.6135 25.0975 33.29 24.7847 37.7058C23.9922 37.9076 23.3757 38.043 22.9351 38.1122C22.1539 38.235 21.3057 38.3038 20.4724 38.3304C19.6391 38.357 19.3497 38.354 18.1975 38.2467C17.4295 38.1752 16.6923 38.0573 15.9861 37.893Z" fill="#e0e0e0"/>
</g>
</g>

<g id='telegram'>
<g clip-path="url(#clip0_72118_6)">
<path d="M20 0C14.6969 0 9.60625 2.10844 5.85938 5.85781C2.10866 9.60869 0.00107328 14.6956 0 20C0 25.3022 2.10938 30.3928 5.85938 34.1422C9.60625 37.8916 14.6969 40 20 40C25.3031 40 30.3938 37.8916 34.1406 34.1422C37.8906 30.3928 40 25.3022 40 20C40 14.6978 37.8906 9.60719 34.1406 5.85781C30.3938 2.10844 25.3031 0 20 0Z" fill="#0088cc"/>
<path d="M9.05315 19.7888C14.8844 17.2488 18.7719 15.5742 20.7157 14.765C26.2719 12.4547 27.425 12.0534 28.1782 12.0398C28.3438 12.0372 28.7125 12.0781 28.9532 12.2727C29.1532 12.4367 29.2094 12.6586 29.2375 12.8144C29.2625 12.97 29.2969 13.3247 29.2688 13.6016C28.9688 16.7641 27.6657 24.4384 27.0032 27.9806C26.725 29.4794 26.1719 29.9819 25.6375 30.0309C24.475 30.1378 23.5938 29.2634 22.4688 28.5262C20.7094 27.3722 19.7157 26.6541 18.0063 25.5281C16.0313 24.2269 17.3125 23.5116 18.4375 22.3428C18.7313 22.0369 23.85 17.3822 23.9469 16.96C23.9594 16.9072 23.9719 16.7103 23.8532 16.6066C23.7375 16.5025 23.5657 16.5381 23.4407 16.5663C23.2625 16.6063 20.4532 18.465 15.0032 22.1422C14.2063 22.6903 13.4844 22.9575 12.8344 22.9434C12.1219 22.9281 10.7469 22.5397 9.72503 22.2078C8.47503 21.8006 7.47815 21.5853 7.56565 20.8938C7.6094 20.5338 8.10628 20.1653 9.05315 19.7888Z" fill="white"/>
</g>
</g>
</svg>
