<svg width="120" height="120" viewBox="0 0 120 120" fill="none" xmlns="http://www.w3.org/2000/svg">
<g id='logo'>
<path d="M48 23.79C48 29.2269 46.1148 34.4955 42.6657 38.6983C39.2166 42.901 34.417 45.7778 29.0846 46.8385C23.7522 47.8992 18.2171 47.0781 13.4222 44.5152C8.62731 41.9523 4.86942 37.8061 2.78883 32.7831C0.708239 27.7601 0.433668 22.1711 2.0119 16.9684C3.59013 11.7656 6.92352 7.27106 11.4441 4.2505C15.9647 1.22995 21.3927 -0.129706 26.8034 0.403198C32.2141 0.936101 37.2726 3.3286 41.117 7.17303L38.5485 9.74152C35.2983 6.49133 31.0217 4.46864 26.4474 4.01811C21.873 3.56757 17.284 4.71707 13.4622 7.27073C9.64032 9.8244 6.82218 13.6242 5.48789 18.0228C4.15361 22.4213 4.38574 27.1465 6.14473 31.393C7.90373 35.6396 11.0808 39.1449 15.1345 41.3117C19.1882 43.4785 23.8678 44.1726 28.376 43.2759C32.8841 42.3792 36.9419 39.947 39.8579 36.3939C42.7738 32.8408 44.3676 28.3865 44.3676 23.79H48Z" fill="white"/>
<path d="M16.0159 39.0958C12.4748 37.1329 9.72382 34.003 8.23174 30.2392C6.73967 26.4755 6.59878 22.3108 7.83309 18.4548C9.0674 14.5988 11.6005 11.2901 15.0009 9.09244C18.4012 6.89477 22.4584 5.9441 26.4811 6.40243C30.5038 6.86076 34.2431 8.69972 37.0619 11.606C39.8807 14.5122 41.6047 18.306 41.9399 22.3408C42.2752 26.3756 41.2011 30.4018 38.9006 33.7335C36.6001 37.0651 33.2156 39.496 29.3237 40.612L28.5781 38.0118C31.8684 37.0683 34.7298 35.0132 36.6747 32.1965C38.6196 29.3798 39.5277 25.9759 39.2442 22.5648C38.9608 19.1536 37.5033 15.9463 35.1202 13.4893C32.7371 11.0322 29.5758 9.4775 26.1749 9.09002C22.774 8.70254 19.3439 9.50626 16.4692 11.3642C13.5944 13.2222 11.4528 16.0195 10.4093 19.2795C9.36578 22.5394 9.48489 26.0604 10.7463 29.2424C12.0078 32.4243 14.3335 35.0705 17.3273 36.73L16.0159 39.0958Z" fill="white"/>
<path d="M24.5 11.29C27.3919 11.29 30.1944 12.2928 32.4299 14.1274C34.6654 15.962 36.1956 18.515 36.7598 21.3514C37.324 24.1878 36.8873 27.132 35.524 29.6825C34.1608 32.233 31.9554 34.2318 29.2835 35.3385C26.6117 36.4452 23.6389 36.5913 20.8714 35.7518C18.104 34.9123 15.7133 33.1392 14.1066 30.7347C12.5 28.3301 11.7767 25.4428 12.0602 22.5648C12.3437 19.6868 13.6163 16.9961 15.6612 14.9512L17.0274 16.3174C15.2986 18.0463 14.2227 20.321 13.983 22.7542C13.7434 25.1874 14.3548 27.6283 15.7131 29.6612C17.0715 31.6941 19.0927 33.1931 21.4323 33.9029C23.772 34.6126 26.2853 34.4891 28.5442 33.5535C30.803 32.6178 32.6675 30.9279 33.82 28.7717C34.9726 26.6155 35.3418 24.1263 34.8648 21.7283C34.3878 19.3304 33.0941 17.172 31.2042 15.621C29.3142 14.0699 26.9449 13.2222 24.5 13.2222L24.5 11.29Z" fill="white"/>
<path d="M17.0301 19.7343C17.9685 18.0061 19.477 16.6567 21.2987 15.916C23.1205 15.1754 25.1426 15.0893 27.0207 15.6725C28.8988 16.2556 30.5165 17.4719 31.5983 19.1141C32.6802 20.7563 33.1591 22.7229 32.9535 24.6786C32.748 26.6344 31.8706 28.4583 30.471 29.8397C29.0714 31.2211 27.2361 32.0745 25.2779 32.2545C23.3196 32.4344 21.3595 31.9298 19.7316 30.8266C18.1037 29.7233 16.9086 28.0898 16.3501 26.2043L17.7273 25.7963C18.1915 27.3632 19.1846 28.7207 20.5374 29.6375C21.8902 30.5543 23.5191 30.9737 25.1464 30.8241C26.7738 30.6746 28.2989 29.9654 29.462 28.8175C30.6251 27.6695 31.3542 26.1537 31.525 24.5285C31.6959 22.9032 31.2979 21.269 30.3989 19.9043C29.4999 18.5396 28.1555 17.5288 26.5948 17.0442C25.034 16.5596 23.3536 16.6311 21.8397 17.2466C20.3258 17.8621 19.0722 18.9835 18.2924 20.4196L17.0301 19.7343Z" fill="white"/>
<path d="M28.2197 26.3227C27.6337 27.1833 26.7675 27.8141 25.7687 28.1076C24.7698 28.4011 23.7001 28.3392 22.7417 27.9324C21.7834 27.5256 20.9958 26.7991 20.513 25.8767C20.0303 24.9543 19.8823 23.893 20.0943 22.8737C20.3063 21.8544 20.8652 20.9402 21.6757 20.2868C22.4862 19.6334 23.4982 19.2812 24.5393 19.2903C25.5803 19.2994 26.586 19.6692 27.385 20.3366C28.184 21.0041 28.7269 21.9279 28.921 22.9508L28.0934 23.1079C27.9356 22.2765 27.4944 21.5256 26.845 20.9831C26.1955 20.4406 25.3781 20.14 24.5319 20.1326C23.6858 20.1253 22.8632 20.4115 22.2044 20.9426C21.5456 21.4737 21.0914 22.2168 20.9191 23.0453C20.7467 23.8737 20.867 24.7363 21.2594 25.4861C21.6517 26.2358 22.2919 26.8263 23.0709 27.157C23.8498 27.4876 24.7193 27.5379 25.5312 27.2994C26.3431 27.0608 27.0471 26.5481 27.5234 25.8486L28.2197 26.3227Z" fill="white"/>
<path d="M23.7068 21.4192C24.2553 21.2357 24.8504 21.248 25.3909 21.4541C25.9313 21.6602 26.3835 22.0473 26.6705 22.5495C26.9575 23.0516 27.0615 23.6378 26.9648 24.208C26.8681 24.7783 26.5767 25.2973 26.1402 25.6768C25.7037 26.0563 25.1491 26.2726 24.5709 26.289C23.9928 26.3054 23.4268 26.1209 22.9695 25.7668C22.5122 25.4127 22.1918 24.9109 22.0629 24.3471C21.934 23.7832 22.0046 23.1922 22.2627 22.6745L23.1394 23.1117C22.9825 23.4264 22.9395 23.7859 23.0179 24.1288C23.0963 24.4717 23.2911 24.7768 23.5693 24.9921C23.8474 25.2075 24.1916 25.3197 24.5431 25.3098C24.8947 25.2998 25.232 25.1682 25.4975 24.9374C25.7629 24.7067 25.9402 24.391 25.999 24.0442C26.0578 23.6974 25.9945 23.341 25.82 23.0356C25.6454 22.7302 25.3704 22.4948 25.0418 22.3695C24.7131 22.2442 24.3512 22.2367 24.0176 22.3483L23.7068 21.4192Z" fill="white"/>
<circle cx="24.5" cy="23.79" r="0.5" transform="rotate(-180 24.5 23.79)" fill="white"/>
<path d="M77.83 19.65C77.83 20.71 77.58 21.71 77.08 22.65C76.58 23.59 75.78 24.36 74.68 24.96C73.58 25.54 72.17 25.83 70.45 25.83H66.67V34.29H63.25V13.44H70.45C72.05 13.44 73.4 13.72 74.5 14.28C75.62 14.82 76.45 15.56 76.99 16.5C77.55 17.44 77.83 18.49 77.83 19.65ZM70.45 23.04C71.75 23.04 72.72 22.75 73.36 22.17C74 21.57 74.32 20.73 74.32 19.65C74.32 17.37 73.03 16.23 70.45 16.23H66.67V23.04H70.45ZM88.2618 34.56C86.7018 34.56 85.2918 34.21 84.0318 33.51C82.7718 32.79 81.7818 31.79 81.0618 30.51C80.3418 29.21 79.9818 27.71 79.9818 26.01C79.9818 24.33 80.3518 22.84 81.0918 21.54C81.8318 20.24 82.8418 19.24 84.1218 18.54C85.4018 17.84 86.8318 17.49 88.4118 17.49C89.9918 17.49 91.4218 17.84 92.7018 18.54C93.9818 19.24 94.9918 20.24 95.7318 21.54C96.4718 22.84 96.8418 24.33 96.8418 26.01C96.8418 27.69 96.4618 29.18 95.7018 30.48C94.9418 31.78 93.9018 32.79 92.5818 33.51C91.2818 34.21 89.8418 34.56 88.2618 34.56ZM88.2618 31.59C89.1418 31.59 89.9618 31.38 90.7218 30.96C91.5018 30.54 92.1318 29.91 92.6118 29.07C93.0918 28.23 93.3318 27.21 93.3318 26.01C93.3318 24.81 93.1018 23.8 92.6418 22.98C92.1818 22.14 91.5718 21.51 90.8118 21.09C90.0518 20.67 89.2318 20.46 88.3518 20.46C87.4718 20.46 86.6518 20.67 85.8918 21.09C85.1518 21.51 84.5618 22.14 84.1218 22.98C83.6818 23.8 83.4618 24.81 83.4618 26.01C83.4618 27.79 83.9118 29.17 84.8118 30.15C85.7318 31.11 86.8818 31.59 88.2618 31.59ZM103.643 20.16C104.143 19.32 104.803 18.67 105.623 18.21C106.463 17.73 107.453 17.49 108.593 17.49V21.03H107.723C106.383 21.03 105.363 21.37 104.663 22.05C103.983 22.73 103.643 23.91 103.643 25.59V34.29H100.223V17.76H103.643V20.16ZM115.726 20.55V29.7C115.726 30.32 115.866 30.77 116.146 31.05C116.446 31.31 116.946 31.44 117.646 31.44H119.746V34.29H117.046C115.506 34.29 114.326 33.93 113.506 33.21C112.686 32.49 112.276 31.32 112.276 29.7V20.55H110.326V17.76H112.276V13.65H115.726V17.76H119.746V20.55H115.726ZM129.828 20.55H126.768V34.29H123.318V20.55H121.368V17.76H123.318V16.59C123.318 14.69 123.818 13.31 124.818 12.45C125.838 11.57 127.428 11.13 129.588 11.13V13.98C128.548 13.98 127.818 14.18 127.398 14.58C126.978 14.96 126.768 15.63 126.768 16.59V17.76H129.828V20.55ZM140.029 34.56C138.469 34.56 137.059 34.21 135.799 33.51C134.539 32.79 133.549 31.79 132.829 30.51C132.109 29.21 131.749 27.71 131.749 26.01C131.749 24.33 132.119 22.84 132.859 21.54C133.599 20.24 134.609 19.24 135.889 18.54C137.169 17.84 138.599 17.49 140.179 17.49C141.759 17.49 143.189 17.84 144.469 18.54C145.749 19.24 146.759 20.24 147.499 21.54C148.239 22.84 148.609 24.33 148.609 26.01C148.609 27.69 148.229 29.18 147.469 30.48C146.709 31.78 145.669 32.79 144.349 33.51C143.049 34.21 141.609 34.56 140.029 34.56ZM140.029 31.59C140.909 31.59 141.729 31.38 142.489 30.96C143.269 30.54 143.899 29.91 144.379 29.07C144.859 28.23 145.099 27.21 145.099 26.01C145.099 24.81 144.869 23.8 144.409 22.98C143.949 22.14 143.339 21.51 142.579 21.09C141.819 20.67 140.999 20.46 140.119 20.46C139.239 20.46 138.419 20.67 137.659 21.09C136.919 21.51 136.329 22.14 135.889 22.98C135.449 23.8 135.229 24.81 135.229 26.01C135.229 27.79 135.679 29.17 136.579 30.15C137.499 31.11 138.649 31.59 140.029 31.59ZM155.41 12.09V34.29H151.99V12.09H155.41ZM161.64 15.57C161.02 15.57 160.5 15.36 160.08 14.94C159.66 14.52 159.45 14 159.45 13.38C159.45 12.76 159.66 12.24 160.08 11.82C160.5 11.4 161.02 11.19 161.64 11.19C162.24 11.19 162.75 11.4 163.17 11.82C163.59 12.24 163.8 12.76 163.8 13.38C163.8 14 163.59 14.52 163.17 14.94C162.75 15.36 162.24 15.57 161.64 15.57ZM163.32 17.76V34.29H159.9V17.76H163.32ZM174.981 34.56C173.421 34.56 172.011 34.21 170.751 33.51C169.491 32.79 168.501 31.79 167.781 30.51C167.061 29.21 166.701 27.71 166.701 26.01C166.701 24.33 167.071 22.84 167.811 21.54C168.551 20.24 169.561 19.24 170.841 18.54C172.121 17.84 173.551 17.49 175.131 17.49C176.711 17.49 178.141 17.84 179.421 18.54C180.701 19.24 181.711 20.24 182.451 21.54C183.191 22.84 183.561 24.33 183.561 26.01C183.561 27.69 183.181 29.18 182.421 30.48C181.661 31.78 180.621 32.79 179.301 33.51C178.001 34.21 176.561 34.56 174.981 34.56ZM174.981 31.59C175.861 31.59 176.681 31.38 177.441 30.96C178.221 30.54 178.851 29.91 179.331 29.07C179.811 28.23 180.051 27.21 180.051 26.01C180.051 24.81 179.821 23.8 179.361 22.98C178.901 22.14 178.291 21.51 177.531 21.09C176.771 20.67 175.951 20.46 175.071 20.46C174.191 20.46 173.371 20.67 172.611 21.09C171.871 21.51 171.281 22.14 170.841 22.98C170.401 23.8 170.181 24.81 170.181 26.01C170.181 27.79 170.631 29.17 171.531 30.15C172.451 31.11 173.601 31.59 174.981 31.59Z" fill="white"/>
</g>

<g id="html">
<path d="M22.1323 102.004L13.7061 7.5H106.294L97.856 101.989L59.9436 112.5L22.1323 102.004Z" fill="#E44F26"/>
<path d="M60 104.468L90.6375 95.9738L97.845 15.2288H60V104.468Z" fill="#F1662A"/>
<path d="M60 50.2762H44.6625L43.605 38.4075H60V26.8162H30.9375L31.215 29.9287L34.0613 61.8675H60V50.2762ZM60 80.3775L59.9475 80.3925L47.04 76.9087L46.215 67.665H34.5787L36.2025 85.86L59.9475 92.4525L60 92.4375V80.3775Z" fill="#EBEBEB"/>
<path d="M59.959 50.2762V61.8675H74.2315L72.889 76.9012L59.959 80.3887V92.4487L83.7227 85.86L83.8952 83.9025L86.6177 53.3887L86.9027 50.2762H59.959ZM59.959 26.8162V38.4075H87.9565L88.189 35.805L88.7177 29.9287L88.9952 26.8162H59.959Z" fill="white"/>
</g>

<g id='css'>
<path d="M22.1325 101.154L13.71 7.4375H106.29L97.8562 101.139L59.9437 111.562L22.1325 101.154Z" fill="#1572B6"/>
<path d="M60 103.597L90.6375 95.174L97.845 15.1019H60V103.597Z" fill="#33A9DC"/>
<path d="M60 49.054H75.3375L76.395 37.2842H60V25.7896H89.0625L88.785 28.8724L85.9387 60.5487H60V49.054Z" fill="white"/>
<path d="M60.0711 78.9045L60.0186 78.9193L47.1112 75.4609L46.2862 66.2942H34.6499L36.2737 84.3413L60.0149 90.8788L60.0711 90.864V78.9045Z" fill="#EBEBEB"/>
<path d="M74.3513 60.0615L72.9563 75.4534L60.03 78.9119V90.8714L83.79 84.3412L83.9663 82.4001L85.98 60.0615H74.3513Z" fill="white"/>
<path d="M60.0411 25.7896V37.2842H32.0436L31.8111 34.6997L31.2824 28.8724L31.0049 25.7896H60.0411ZM59.9999 49.054V60.5487H47.2536L47.0211 57.9642L46.4961 52.1369L46.2186 49.054H59.9999Z" fill="#EBEBEB"/>
</g>

<g id='js'>
<path d="M7.5 7.5H112.5V112.5H7.5V7.5Z" fill="#F5DE19"/>
<path d="M78.0338 89.5312C78.9284 91.3485 80.3183 92.8759 82.0434 93.9375C83.7684 94.9991 85.7584 95.5515 87.7838 95.5313C91.8713 95.5313 94.485 93.4875 94.485 90.6562C94.485 87.2812 91.8 86.0738 87.3 84.105L84.8325 83.0475C77.7075 80.0138 72.9825 76.215 72.9825 68.1825C72.9825 60.7838 78.6075 55.1475 87.4313 55.1475C90.2877 54.9412 93.1416 55.5805 95.637 56.9856C98.1324 58.3907 100.159 60.4994 101.464 63.0488L93.75 67.98C93.2476 66.716 92.3728 65.6345 91.2416 64.879C90.1105 64.1236 88.7764 63.7298 87.4163 63.75C86.8229 63.6906 86.2236 63.7555 85.6567 63.9404C85.0897 64.1254 84.5675 64.4265 84.1234 64.8244C83.6792 65.2224 83.3228 65.7085 83.0769 66.2518C82.831 66.7951 82.7009 67.3837 82.695 67.98C82.695 70.9388 84.5288 72.1388 88.7625 73.98L91.23 75.0375C99.615 78.6338 104.355 82.2975 104.355 90.5363C104.355 99.42 97.3763 104.287 88.005 104.287C84.3537 104.52 80.713 103.691 77.5223 101.901C74.3317 100.11 71.7274 97.4342 70.0238 94.1963L78.0338 89.5312ZM43.1775 90.3863C44.7263 93.135 46.1363 95.46 49.5263 95.46C52.7663 95.46 54.8138 94.1925 54.8138 89.2612V55.71H64.68V89.3925C64.68 99.6075 58.68 104.257 49.9463 104.257C46.8591 104.426 43.7931 103.657 41.1513 102.051C38.5096 100.444 36.4157 98.0761 35.145 95.2575L43.1775 90.3863Z" fill="black"/>
</g>

<g id='react'>
<g clip-path="url(#clip0_2_5687)">
<path d="M92.9055 32.7027C91.703 32.2887 90.4903 31.9051 89.2686 31.5523C89.4738 30.7106 89.6627 29.8792 89.8304 29.0623C92.5837 15.6483 90.7838 4.84178 84.6359 1.28375C78.7415 -2.12722 69.1015 1.42949 59.3658 9.93342C58.4063 10.773 57.4681 11.6368 56.552 12.524C55.9388 11.934 55.3148 11.3556 54.6802 10.7888C44.4766 1.69616 34.2492 -2.13608 28.108 1.43215C22.2188 4.85374 20.4749 15.0127 22.9537 27.7254C23.2003 28.9844 23.4787 30.237 23.7887 31.4819C22.341 31.8947 20.9441 32.3342 19.6072 32.8019C7.64431 36.9881 0.00463867 43.5483 0.00463867 50.3529C0.00463867 57.3808 8.20617 64.43 20.666 68.7043C21.6762 69.0495 22.6947 69.3692 23.7208 69.6634C23.3875 71.0042 23.0917 72.354 22.8336 73.7114C20.4705 86.2035 22.3159 96.1223 28.1892 99.5222C34.2554 103.033 44.4369 99.4247 54.3505 90.7268C55.1544 90.0196 55.9406 89.2925 56.7083 88.546C57.7003 89.5066 58.7188 90.4393 59.7626 91.343C69.3659 99.6365 78.85 102.985 84.7176 99.5762C90.7781 96.055 92.7479 85.3995 90.1906 72.4356C89.9891 71.42 89.7632 70.4094 89.5131 69.4047C90.2281 69.1921 90.9299 68.9732 91.614 68.7455C104.567 64.4384 112.995 57.4747 112.995 50.3529C112.995 43.5234 105.109 36.919 92.9055 32.7027ZM90.0961 64.1474C89.4782 64.3525 88.8444 64.5505 88.1982 64.7432C86.7682 60.1995 84.8385 55.3684 82.4768 50.3764C84.7304 45.5036 86.5859 40.734 87.9758 36.22C89.1317 36.5558 90.2533 36.9097 91.3346 37.2832C101.791 40.8961 108.168 46.2372 108.168 50.3529C108.168 54.7367 101.28 60.4277 90.0961 64.1474ZM85.4556 73.3765C86.5864 79.1087 86.7475 84.2916 85.9985 88.3435C85.3258 91.9844 83.9726 94.4115 82.2989 95.3839C78.7384 97.4526 71.1234 94.7637 62.9109 87.6706C61.94 86.8305 60.9926 85.9634 60.0698 85.0703C63.2538 81.5756 66.4356 77.5131 69.5411 73.0008C75.0035 72.5144 80.164 71.7188 84.8438 70.6331C85.0693 71.5426 85.2732 72.4573 85.4556 73.3765ZM38.5256 95.0264C35.0467 96.2592 32.2758 96.2946 30.6008 95.3254C27.0368 93.2624 25.5551 85.298 27.5761 74.6151C27.8164 73.3527 28.0914 72.0972 28.401 70.8502C33.0292 71.8779 38.1522 72.6168 43.6274 73.0624C46.7541 77.4776 50.0277 81.5358 53.327 85.0894C52.6258 85.7703 51.9081 86.4338 51.1744 87.0793C46.7903 90.9252 42.3973 93.654 38.5256 95.0264ZM22.2276 64.1204C16.718 62.2302 12.1679 59.7738 9.04919 57.0933C6.24649 54.6848 4.8319 52.2932 4.8319 50.3529C4.8319 46.2234 10.9656 40.9564 21.1961 37.3766C22.4377 36.9425 23.7371 36.5327 25.0855 36.1482C26.4996 40.7641 28.3543 45.5904 30.5924 50.4707C28.3251 55.4233 26.444 60.3267 25.0162 64.997C24.0796 64.7278 23.1498 64.4355 22.2276 64.1204ZM27.6909 26.7947C25.5674 15.9031 26.9776 7.68706 30.5267 5.62497C34.3066 3.42867 42.6652 6.56011 51.4754 14.4115C52.0499 14.9247 52.6151 15.4482 53.1707 15.9819C49.8878 19.52 46.6442 23.548 43.5453 27.9371C38.2312 28.4315 33.1444 29.2253 28.4677 30.2889C28.1795 29.131 27.9205 27.9661 27.6909 26.7951V26.7947ZM76.43 38.8739C75.3254 36.9589 74.1797 35.0679 72.9939 33.2024C76.599 33.66 80.0532 34.2673 83.2968 35.0098C82.3232 38.1425 81.1094 41.4175 79.6807 44.7753C78.6364 42.7867 77.5526 40.8191 76.43 38.8739ZM56.5542 19.4443C58.7805 21.8652 61.0103 24.5678 63.2035 27.5003C58.7545 27.2894 54.298 27.2886 49.849 27.4977C52.0443 24.5922 54.2931 21.8931 56.5542 19.4443ZM36.5509 38.9071C35.4424 40.8367 34.3788 42.792 33.3612 44.7713C31.9558 41.4255 30.7531 38.1355 29.7711 34.9584C32.9948 34.2346 36.4326 33.6427 40.0148 33.1935C38.8158 35.0704 37.6608 36.9754 36.5509 38.9067V38.9071ZM40.1176 67.8569C36.4168 67.4423 32.9273 66.881 29.7044 66.1767C30.7019 62.9429 31.9311 59.5829 33.3669 56.1653C34.3886 58.1461 35.4566 60.1026 36.5699 62.033C37.7148 64.0176 38.9003 65.9614 40.1176 67.8569ZM56.6875 81.6027C54.3995 79.1255 52.1176 76.3848 49.8891 73.4372C52.0527 73.5222 54.2582 73.5656 56.5 73.5656C58.803 73.5656 61.0796 73.5138 63.3204 73.4137C61.1202 76.4145 58.8988 79.1592 56.6875 81.6027ZM79.7262 55.9907C81.2365 59.446 82.5094 62.7883 83.5202 65.9667C80.2443 66.7171 76.7072 67.3214 72.9803 67.7701C74.1745 65.8699 75.331 63.9461 76.449 61.9998C77.5857 60.0214 78.6783 58.0179 79.7262 55.9907ZM72.2679 59.5794C70.5563 62.5634 68.7486 65.4909 66.8474 68.357C63.4037 68.6018 59.9523 68.7234 56.5 68.7216C52.9836 68.7216 49.5634 68.6118 46.2699 68.3974C44.3191 65.5378 42.4769 62.6053 40.747 59.6059H40.7475C39.0258 56.6225 37.4176 53.5745 35.9264 50.4685C37.4138 47.3618 39.0171 44.3124 40.7329 41.3267L40.7325 41.3271C42.4476 38.3407 44.2752 35.4206 46.2112 32.5734C49.5713 32.3182 53.0171 32.1853 56.4995 32.1853H56.5C59.9983 32.1853 63.4484 32.3195 66.8077 32.5765C68.7242 35.4195 70.5401 38.3295 72.252 41.301C73.9735 44.2801 75.598 47.3147 77.123 50.3999C75.6137 53.5166 73.9943 56.5783 72.2679 59.5794ZM82.2252 5.48056C86.0086 7.67067 87.4801 16.5024 85.1029 28.0842C84.9511 28.8231 84.7807 29.5757 84.5953 30.339C79.9071 29.2528 74.8168 28.4452 69.4873 27.9433C66.3827 23.506 63.1655 19.4717 59.936 15.9792C60.7824 15.1604 61.6489 14.3628 62.5348 13.5871C70.8767 6.30141 78.673 3.42468 82.2252 5.48056ZM56.5 40.2263C62.0723 40.2263 66.5897 44.7603 66.5897 50.3529C66.5897 55.9456 62.0723 60.4795 56.5 60.4795C50.9277 60.4795 46.4102 55.9456 46.4102 50.3529C46.4102 44.7603 50.9277 40.2263 56.5 40.2263Z" fill="#00D8FF"/>
</g>
<defs>
<clipPath id="clip0_2_5687">
<rect width="113" height="101" fill="white"/>
</clipPath>
</defs>
</g>

<g id='whatsapp'>
<path d="M11.1896 8.82463C11.4732 8.83655 11.787 8.8502 12.0851 9.53081C12.2888 9.99609 12.6316 10.8635 12.9048 11.5548C13.1061 12.0642 13.2696 12.4779 13.3118 12.5646C13.4113 12.769 13.4776 13.0077 13.3449 13.2806C13.3251 13.3214 13.3067 13.3599 13.2892 13.3967C13.1895 13.6057 13.1162 13.7592 12.9474 13.9622C12.8812 14.0415 12.8128 14.127 12.7444 14.2124C12.6071 14.384 12.4697 14.5557 12.3504 14.6779C12.1508 14.8817 11.9435 15.1031 12.1757 15.5118C12.4079 15.921 13.2065 17.2589 14.3894 18.3421C15.6602 19.5059 16.7642 19.9982 17.3248 20.2481C17.4349 20.2972 17.524 20.337 17.5894 20.3706C17.9874 20.575 18.2195 20.541 18.4516 20.2678C18.6838 19.9953 19.446 19.0749 19.7113 18.6661C19.9766 18.257 20.2419 18.3251 20.6067 18.4613C20.9715 18.5976 22.9278 19.5865 23.3258 19.7909C23.4034 19.8307 23.4759 19.8667 23.5432 19.9C23.8209 20.0377 24.0084 20.1307 24.0885 20.2678C24.188 20.4388 24.188 21.2567 23.8564 22.211C23.5248 23.1654 21.9001 24.0858 21.1705 24.1539C21.1003 24.1605 21.0305 24.1689 20.9587 24.1776C20.2844 24.259 19.4334 24.3618 16.3954 23.1313C12.6573 21.6172 10.1926 17.865 9.68339 17.0899C9.64164 17.0263 9.61303 16.9827 9.59795 16.9621L9.59352 16.956C9.37895 16.6615 7.97312 14.7317 7.97312 12.735C7.97312 10.8527 8.87389 9.86609 9.28834 9.41214C9.31666 9.38111 9.34271 9.35258 9.36605 9.32642C9.73058 8.91741 10.1618 8.81506 10.427 8.81506C10.4416 8.81506 10.4561 8.81506 10.4707 8.81506C10.7212 8.81502 10.9705 8.81499 11.1896 8.82463Z" fill="url(#paint0_linear_11_4996)"/>
<path fill-rule="evenodd" clip-rule="evenodd" d="M2.28113 24.519C0.867471 22.044 0.128514 19.239 0.128514 16.335C0.128514 7.326 7.29317 0 16.0643 0C20.3374 0 24.3213 1.716 27.3414 4.785C30.3293 7.887 32 11.979 32 16.368C32 25.377 24.8353 32.703 16.0643 32.703C13.3976 32.703 10.7631 32.043 8.4498 30.723L0 33L2.28113 24.519ZM4.8514 23.595L5.17269 24.09L3.82329 29.106L8.83534 27.753L9.31727 28.05C11.3414 29.304 13.6867 29.964 16.0643 29.964C23.3574 29.964 29.3012 23.859 29.3012 16.368C29.3012 12.738 27.9197 9.306 25.4137 6.732C22.9398 4.191 19.5984 2.772 16.0643 2.772C8.77108 2.772 2.82731 8.844 2.82731 16.368C2.82731 18.909 3.53414 21.417 4.8514 23.595Z" fill="url(#paint1_linear_11_4996)"/>
<defs>
<linearGradient id="paint0_linear_11_4996" x1="0" y1="16.5018" x2="32" y2="16.5018" gradientUnits="userSpaceOnUse">
<stop stop-color="#20B038"/>
<stop offset="1" stop-color="#60D66A"/>
</linearGradient>
<linearGradient id="paint1_linear_11_4996" x1="0" y1="16.5018" x2="32" y2="16.5018" gradientUnits="userSpaceOnUse">
<stop stop-color="#20B038"/>
<stop offset="1" stop-color="#60D66A"/>
</linearGradient>
</defs>
</g>

<g id='github'>
<path fill-rule="evenodd" clip-rule="evenodd" d="M44 0C19.69 0 0 19.69 0 44C0 63.47 12.595 79.915 30.085 85.745C32.285 86.13 33.11 84.81 33.11 83.655C33.11 82.61 33.055 79.145 33.055 75.46C22 77.495 19.14 72.765 18.26 70.29C17.765 69.025 15.62 65.12 13.75 64.075C12.21 63.25 10.01 61.215 13.695 61.16C17.16 61.105 19.635 64.35 20.46 65.67C24.42 72.325 30.745 70.455 33.275 69.3C33.66 66.44 34.815 64.515 36.08 63.415C26.29 62.315 16.06 58.52 16.06 41.69C16.06 36.905 17.765 32.945 20.57 29.865C20.13 28.765 18.59 24.255 21.01 18.205C21.01 18.205 24.695 17.05 33.11 22.715C36.63 21.725 40.37 21.23 44.11 21.23C47.85 21.23 51.59 21.725 55.11 22.715C63.525 16.995 67.21 18.205 67.21 18.205C69.63 24.255 68.09 28.765 67.65 29.865C70.455 32.945 72.16 36.85 72.16 41.69C72.16 58.575 61.875 62.315 52.085 63.415C53.68 64.79 55.055 67.43 55.055 71.555C55.055 77.44 55 82.17 55 83.655C55 84.81 55.825 86.185 58.025 85.745C66.7597 82.796 74.3497 77.1822 79.7268 69.6937C85.1039 62.2052 87.9974 53.219 88 44C88 19.69 68.31 0 44 0Z" fill="white"/>
</g>

<g id='telegram'>
<path d="M16.5118 33.0642C25.618 33.0642 33 25.6822 33 16.576C33 7.46989 25.618 0.0878906 16.5118 0.0878906C7.40568 0.0878906 0.0236816 7.46989 0.0236816 16.576C0.0236816 25.6822 7.40568 33.0642 16.5118 33.0642Z" fill="url(#paint0_linear_11_4997)"/>
<path fill-rule="evenodd" clip-rule="evenodd" d="M7.48718 16.4019C12.2938 14.3077 15.499 12.9271 17.1027 12.2601C21.6816 10.3556 22.6331 10.0247 23.2532 10.0138C23.3896 10.0114 23.6946 10.0452 23.8922 10.2055C24.059 10.3408 24.1049 10.5237 24.1268 10.652C24.1488 10.7803 24.1761 11.0727 24.1544 11.3011C23.9063 13.9083 22.8326 20.2352 22.2864 23.1552C22.0552 24.3908 21.6001 24.8051 21.1596 24.8457C20.2021 24.9338 19.475 24.2129 18.5476 23.605C17.0964 22.6537 16.2766 22.0615 14.868 21.1333C13.2401 20.0605 14.2954 19.4709 15.2231 18.5073C15.4659 18.2552 19.6847 14.4179 19.7663 14.0698C19.7765 14.0262 19.786 13.864 19.6896 13.7783C19.5932 13.6926 19.4509 13.7219 19.3482 13.7452C19.2027 13.7782 16.8844 15.3105 12.3934 18.342C11.7354 18.7939 11.1394 19.0141 10.6054 19.0025C10.0166 18.9898 8.8842 18.6697 8.04234 18.396C7.00977 18.0603 6.1891 17.8829 6.26056 17.3129C6.29779 17.0159 6.70666 16.7123 7.48718 16.4019Z" fill="white"/>
<defs>
<linearGradient id="paint0_linear_11_4997" x1="16.5118" y1="0.0878906" x2="16.5118" y2="32.8196" gradientUnits="userSpaceOnUse">
<stop stop-color="#2AABEE"/>
<stop offset="1" stop-color="#229ED9"/>
</linearGradient>
</defs>
</g>
</svg>
